<svg xmlns="http://www.w3.org/2000/svg" width="50" height="50" viewBox="0 0 50 50">
  <g id="Grupo_114" data-name="Grupo 114" transform="translate(-419 -5595)">
    <rect id="Retângulo_79" data-name="Retângulo 79" width="50" height="50" transform="translate(419 5595)" fill="none"/>
    <path id="person-circle-plus-solid" d="M18.052,4.167A4.167,4.167,0,1,1,13.885,0,4.167,4.167,0,0,1,18.052,4.167ZM13.191,30.555V41.666a2.778,2.778,0,1,1-5.556,0V22.3l-2.48,4.132A2.779,2.779,0,0,1,.393,23.568l5.059-8.411a8.328,8.328,0,0,1,7.14-4.045h2.587a8.341,8.341,0,0,1,7.144,4.045l3.9,6.484a14.111,14.111,0,0,0-3.177,5.339c-.165-.165-.382-.347-.425-.547L20.135,22.3V41.666a2.778,2.778,0,1,1-5.556,0V30.555ZM25,31.944a12.5,12.5,0,1,1,12.5,12.5A12.5,12.5,0,0,1,25,31.944Zm13.889-5.634a1.389,1.389,0,0,0-2.778,0v4.167H31.941a1.446,1.446,0,0,0-1.389,1.389,1.345,1.345,0,0,0,1.389,1.389h4.167v4.167a1.389,1.389,0,0,0,2.778,0V33.255h4.167a1.345,1.345,0,0,0,1.389-1.389,1.446,1.446,0,0,0-1.389-1.389H38.885Z" transform="translate(419.004 5598)" fill="#ee1515"/>
  </g>
</svg>
