<svg xmlns="http://www.w3.org/2000/svg" width="50" height="50" viewBox="0 0 50 50">
  <path id="earth-americas-solid" d="M50,25A25,25,0,1,1,25,0,25,25,0,0,1,50,25ZM5.636,18.76l.914,1.689a6.254,6.254,0,0,0,3.714,2.91l5.566,1.611a3.881,3.881,0,0,1,2.92,3.76v3.9a2.6,2.6,0,0,0,1.563,2.441,3.065,3.065,0,0,1,1.563,2.617v3.809a2.285,2.285,0,0,0,2.92,2.2A4.726,4.726,0,0,0,27.988,40.4l.273-1.094a6.278,6.278,0,0,1,2.959-3.916l.791-.449a4.67,4.67,0,0,0,2.363-4.072v-.8A4.693,4.693,0,0,0,33,26.748l-.371-.371a4.8,4.8,0,0,0-3.32-1.465h-4.3a6.123,6.123,0,0,1-3.018-.732l-3.369-1.934a1.917,1.917,0,0,1-.889-1.084,1.987,1.987,0,0,1,.986-2.4l.586-.283A2.51,2.51,0,0,1,21.3,18.33l2.354.752a1.867,1.867,0,0,0,2.021-2.969l-1.328-1.582a3.119,3.119,0,0,1,.029-4.033L25.908,8.7a3.127,3.127,0,0,0,.342-3.584l-.234-.406C25.6,4.7,25.342,4.688,25,4.688A20.354,20.354,0,0,0,5.636,18.76Zm37.1-3.672-2.5,1.006a3.13,3.13,0,0,0-1.807,3.887l1.65,4.951a3.15,3.15,0,0,0,2.207,2.051l2.852.7a20.4,20.4,0,0,0-2.4-12.6Z" fill="#ee1515"/>
</svg>
