<svg xmlns="http://www.w3.org/2000/svg" width="50" height="50" viewBox="0 0 50 50">
  <path id="share-nodes-solid" d="M50,42.614A10.653,10.653,0,0,1,39.286,53.328a10.545,10.545,0,0,1-7.433-2.9l-10.5,5.246A10.874,10.874,0,0,1,21.328,57a10.25,10.25,0,0,1,.022,1.328l10.5,5.246a10.711,10.711,0,1,1-3.281,7.712,9.453,9.453,0,0,1,.078-1.328l-10.5-5.246a10.714,10.714,0,1,1,0-15.424l10.5-5.246a11.669,11.669,0,0,1-.078-1.328,10.714,10.714,0,1,1,21.429,0ZM10.614,60.471A3.447,3.447,0,0,0,14.185,56.9a3.567,3.567,0,0,0-3.571-3.571A3.706,3.706,0,0,0,7.042,56.9,3.569,3.569,0,0,0,10.614,60.471ZM39.286,39.042a3.633,3.633,0,0,0-3.571,3.571,3.571,3.571,0,1,0,7.143,0A3.633,3.633,0,0,0,39.286,39.042Zm0,35.815a3.571,3.571,0,1,0-3.571-3.571A3.568,3.568,0,0,0,39.286,74.857Z" transform="translate(0 -32)" fill="#ee1515"/>
</svg>
