<svg xmlns="http://www.w3.org/2000/svg" width="40" height="29.648" viewBox="0 0 40 29.648">
  <path id="envelope" d="M0,6.941A4.971,4.971,0,0,1,5,2H35a4.971,4.971,0,0,1,5,4.941V26.707a4.971,4.971,0,0,1-5,4.941H5a4.971,4.971,0,0,1-5-4.941ZM5,4.471A2.485,2.485,0,0,0,2.5,6.941v.536L20,17.854,37.5,7.478V6.941A2.485,2.485,0,0,0,35,4.471Zm32.5,5.888-11.77,6.98L37.5,24.5Zm-.085,16.989-14.1-8.576L20,20.735l-3.315-1.964-14.1,8.573A2.5,2.5,0,0,0,5,29.178H35a2.5,2.5,0,0,0,2.415-1.831ZM2.5,24.5l11.77-7.158L2.5,10.358Z" transform="translate(0 -2)" fill="#fff"/>
</svg>
