<svg xmlns="http://www.w3.org/2000/svg" xmlns:xlink="http://www.w3.org/1999/xlink" width="50" height="50" viewBox="0 0 50 50">
  <defs>
    <style>
      .cls-1, .cls-3 {
        fill: #ee1515;
      }

      .cls-1 {
        stroke: #707070;
      }

      .cls-2 {
        clip-path: url(#clip-path);
      }
    </style>
    <clipPath id="clip-path">
      <rect id="Ret칙ngulo_33" data-name="Ret칙ngulo 33" class="cls-1" width="50" height="50" transform="translate(1916 2685)"/>
    </clipPath>
  </defs>
  <g id="Grupo_de_m치scara_1" data-name="Grupo de m치scara 1" class="cls-2" transform="translate(-1916 -2685)">
    <g id="Vectorportal.com" transform="translate(1916.301 2685)">
      <g id="_1299833543408" transform="translate(0 0)">
        <path id="Caminho_93" data-name="Caminho 93" class="cls-3" d="M31.148.714c.007-.028.014-.056.022-.084.429.1.861.221,1.3.356V.991c-.009.034-.017.068-.025.1-.022.1-.042.207-.06.311s-.031.192-.047.287c-.018.112-.038.225-.055.337-.064.417-.122.835-.179,1.253q-.146,1.084-.276,2.17c-.268-.089-.557-.182-.868-.285,0-.639,0-1.278.008-1.916.01-.477.024-.954.054-1.43q.013-.2.031-.4c.009-.1.019-.207.032-.311s.031-.236.057-.353c0-.014.008-.027.011-.041Zm1.255.693h0c-.014.1-.025.2-.037.293s-.03.223-.043.334c-.049.419-.093.838-.134,1.257q-.109,1.107-.2,2.214c.29.1.556.2.8.3l.048-.416c.051-.465.1-.93.165-1.395s.133-.928.237-1.386q.061-.265.147-.524c.017-.05.031-.1.05-.151a1.521,1.521,0,0,1,.159-.314.5.5,0,0,1,.152-.148l.016-.009a6.1,6.1,0,0,0-.668-.275c-.153-.056-.313-.108-.48-.157L32.474.988V.993c-.007.034-.014.068-.021.1-.019.1-.034.208-.049.312Zm1.2.22h0a1.509,1.509,0,0,0-.147.316c-.018.051-.031.1-.046.156-.051.171-.094.345-.128.521-.088.459-.144.922-.192,1.387s-.084.931-.121,1.4l-.038.466a4.335,4.335,0,0,1,.482.258c.2-.576.414-1.145.659-1.7a9.111,9.111,0,0,1,.567-1.106c.011-.018.024-.034.035-.052a2.813,2.813,0,0,1,.339-.445,1.088,1.088,0,0,1,.13-.116.9.9,0,0,1,.114-.077c.014-.007.029-.013.044-.019a4.908,4.908,0,0,0-1.534-1.144l-.015.009a.483.483,0,0,0-.148.152Zm-7.174-.421h0l.222,3.188c.311.024.634.052.964.087q.018-.185.032-.37c.034-.474.046-.95.048-1.426s-.01-.953-.033-1.429c0-.023,0-.046,0-.069-.013-.238-.028-.476-.049-.713q-.018-.2-.043-.408-.616-.046-1.22-.059l.034.489.05.712ZM27.7,1.187h0c0,.022,0,.043.006.065q.057.714.078,1.431c.013.478.016.956,0,1.435q-.008.189-.021.379c.344.038.692.084,1.032.138.009-.717.025-1.434.054-2.151.018-.423.039-.846.072-1.268,0-.008,0-.015,0-.023.017-.215.037-.43.066-.643,0-.014.005-.029.007-.043.013-.092.027-.185.046-.276l0-.008q-.74-.1-1.466-.157.031.2.056.408c.028.237.051.475.071.713Zm-2.346.068h0L25.7,4.334c.245.013.511.029.79.048l-.11-3.175L26.354.495,26.337.005C25.958,0,25.582,0,25.211.007l.061.538.08.71ZM24.1,1.346h0l.549,2.948c.229.005.534.015.89.032L25.3,1.257,25.249.546l-.04-.539q-.684.016-1.349.067l.105.566.131.7ZM29,.552h0c-.021.214-.034.429-.043.644,0,.007,0,.015,0,.023-.018.422-.026.845-.028,1.268,0,.725.005,1.45.021,2.175.256.043.507.091.748.144.012-.618.028-1.237.057-1.854.021-.43.047-.86.087-1.289q.018-.192.042-.383c.011-.087.022-.173.036-.259.017-.106.037-.212.064-.317.011-.042.026-.084.041-.125,0-.009.006-.019.01-.029.023-.045.047-.108.1-.114-.057.008-.079.071-.1.116,0,.009,0,.018-.008.027A1.26,1.26,0,0,0,30,.7c-.023.1-.039.211-.053.317-.011.086-.019.172-.027.259q-.017.191-.029.383c-.025.429-.036.859-.042,1.289-.008.629,0,1.258.008,1.887.268.063.522.133.754.211l.2.067c.015-.624.035-1.247.066-1.871.024-.477.054-.954.1-1.43q.019-.2.043-.4c.012-.1.026-.206.041-.309.02-.118.039-.236.068-.352,0-.014.009-.027.012-.04s.016-.056.025-.084c-.714-.173-1.42-.306-2.116-.4l0,.008c-.016.091-.027.183-.036.275,0,.015,0,.03-.006.045Zm3.543,26.055h0a3.331,3.331,0,0,1-1.778,1.668,6.691,6.691,0,0,1-1.175.367,7.752,7.752,0,0,1-1.221.154,6.846,6.846,0,0,1-2.431-.335A6.149,6.149,0,0,1,23.758,27.2a4.371,4.371,0,0,0,1.974,1.781,5.728,5.728,0,0,0,2.669.529,5.788,5.788,0,0,0,2.623-.734,3.322,3.322,0,0,0,1.036-.916,2.717,2.717,0,0,0,.487-1.251ZM30.4,37.794h0a1.612,1.612,0,0,0-1.424.057.547.547,0,0,0,0,1.037,1.61,1.61,0,0,0,1.425.056.9.9,0,0,0,.3-.228.517.517,0,0,0,0-.694.9.9,0,0,0-.3-.228Zm-.728-13.7h0l-3.186.267A2.854,2.854,0,0,0,29.672,24.09Zm3.876-8.972h0a1.045,1.045,0,0,1-.421.38,1.76,1.76,0,0,1-.566.174,3.482,3.482,0,0,1-.6.034,3.487,3.487,0,0,0,.608.01,1.817,1.817,0,0,0,.6-.138,1.157,1.157,0,0,0,.5-.388.967.967,0,0,0,.169-.627l-.177.024a.813.813,0,0,1-.1.53ZM47.895,46.79h0c-.284-.567-7.06,3.13-15.041,3.208-.7.007-1.4,0-2.112-.022-.647-2.733-1.931-8.471-2.5-11.046l-.174.038c.216.975,1.743,7.838,2.493,11C20.5,49.646,9.692,46.809,9.846,47.324L0,34.8l14.469-5.8c.744,1.137,1.486,2.28,2.288,3.38.806,1.117,1.646,2.212,2.546,3.257a27.84,27.84,0,0,0,2.891,2.961,14.284,14.284,0,0,0,1.66,1.246,6.863,6.863,0,0,0,1.894.862l.043.011.029-.032a12.633,12.633,0,0,0,1.057-1.27,11.8,11.8,0,0,0,.878-1.4,11.346,11.346,0,0,0,.673-1.5,9.018,9.018,0,0,0,.439-1.585l2.959-3.849a8.352,8.352,0,0,1-4.05.848,23.535,23.535,0,0,1-3.94-.385l-.065-.013,5.1,3.4a9.749,9.749,0,0,1-.488,1.566,12.105,12.105,0,0,1-.707,1.477,11.677,11.677,0,0,1-.893,1.37,12.3,12.3,0,0,1-1.035,1.205,6.779,6.779,0,0,1-1.8-.841,14.167,14.167,0,0,1-1.633-1.24,29.747,29.747,0,0,1-2.884-2.934c-.9-1.04-1.754-2.117-2.579-3.218q-.617-.827-1.215-1.668c-.393-.545-.764-1.106-1.159-1.648l.541-.216,1.137-3.5a15.03,15.03,0,0,1-.11-3.4s-.214.021-.486.021c-.408,0-.947-.048-1.092-.289a6.836,6.836,0,0,1-.472-1.381,28.342,28.342,0,0,1-1.158-3.7c.045-.446.178-1.827.632-2.076a5.72,5.72,0,0,1,1.177-.419V8.481s0-.024-.009-.066l-.013-.1c0-.016,0-.032-.006-.05-.005-.043-.011-.094-.017-.149-.015-.131-.032-.293-.048-.477-.014-.143-.024-.286-.034-.429s-.02-.307-.027-.473c-.065-1.468.018-3.448.834-4.226a1.961,1.961,0,0,1,.55-.319,4.347,4.347,0,0,1,2.019-1.082A35.029,35.029,0,0,1,23.855.076l.086.568.107.707L24.5,4.29c-.193,0-.3,0-.3,0s-.263.158-.675.357L22.3,1.533,22.037.848,21.876.435l.145.415.241.688,1.111,3.172c-.221.1-.476.213-.75.316l-.355-.611c-.266-.463-.535-.926-.82-1.38a12.954,12.954,0,0,0-.882-1.257l-.044-.056a4.4,4.4,0,0,0-.551-.567l-.009-.008a1.294,1.294,0,0,0-.715-.337,1.279,1.279,0,0,1,.7.35l0,0a4.347,4.347,0,0,1,.54.587l.027.036a12.788,12.788,0,0,1,.858,1.295c.271.459.526.928.779,1.4l.326.6c-.11.039-.223.077-.338.113q-.433-.44-.893-.852a14.772,14.772,0,0,0-1.505-1.186,8.885,8.885,0,0,0-.818-.5,5.764,5.764,0,0,0-.864-.387l-.011,0a3.655,3.655,0,0,0-.935-.2,2.182,2.182,0,0,0-.941.129,2.173,2.173,0,0,1,.939-.107,3.557,3.557,0,0,1,.867.2l.055.019a5.7,5.7,0,0,1,.858.408,8.831,8.831,0,0,1,.8.514,14.7,14.7,0,0,1,1.466,1.211q.416.39.809.8c-.192.054-.387.1-.583.135-.087-.048-.174-.1-.263-.143-.279-.145-.561-.281-.847-.411-.571-.258-1.153-.494-1.747-.694A9.439,9.439,0,0,0,16.7,3.683a3.185,3.185,0,0,0-.939.007,1.7,1.7,0,0,0-.228.059c-.04.017-.081.035-.121.054a.675.675,0,0,0-.09.049.847.847,0,0,0-.31.345.842.842,0,0,1,.316-.335.616.616,0,0,1,.08-.041c.043-.02.088-.038.132-.056a1.636,1.636,0,0,1,.226-.053,3.161,3.161,0,0,1,.929.015,9.371,9.371,0,0,1,1.8.487c.586.213,1.159.461,1.72.731.28.136.558.278.83.428l.078.045c-.107.013-.213.022-.317.027-.55.023-.97.049-1.288.082a2.972,2.972,0,0,0-.586-.238,4.561,4.561,0,0,0-1.327-.172c-.222-.007-.442.021-.662.03-.218.031-.437.053-.653.091s-.431.081-.644.132l-.459.12-.176.046.175-.033.468-.089c.215-.036.432-.058.647-.088s.433-.03.649-.045c.216.006.433-.007.647.015a4.34,4.34,0,0,1,1.249.248c.05.018.1.042.147.063a1.037,1.037,0,0,0-.248.083q-.14.011-.28.028a9.31,9.31,0,0,0-1.124.205,6.124,6.124,0,0,0-1.08.366,2.713,2.713,0,0,0-.493.287A1.107,1.107,0,0,0,15.406,7a1.1,1.1,0,0,1,.377-.413,2.675,2.675,0,0,1,.5-.264,6.048,6.048,0,0,1,1.082-.32,9.153,9.153,0,0,1,1.117-.159l.145-.009a.8.8,0,0,0,.184.385c-.1.025-.193.048-.288.075a8.582,8.582,0,0,0-1.042.359,4.536,4.536,0,0,0-.959.539,2.249,2.249,0,0,0-.7.832,2.226,2.226,0,0,1,.73-.8,4.464,4.464,0,0,1,.966-.492,8.431,8.431,0,0,1,1.042-.312c.112-.027.225-.05.338-.074a1.474,1.474,0,0,1,.2.5c-.458.326-.91.659-1.351,1.009-.292.236-.582.474-.856.73-.136.13-.272.259-.4.4a1.924,1.924,0,0,0-.322.459,1.916,1.916,0,0,1,.338-.444c.128-.136.269-.259.408-.382.282-.245.581-.47.88-.693.429-.314.869-.613,1.313-.905,0,.006,0,.012,0,.018a12.42,12.42,0,0,0,.327,2.495,7.792,7.792,0,0,1-4.087.934v2.461a.525.525,0,0,1,.167-.187c.24-.133,4.072-.67,4.872-.782a5.4,5.4,0,0,1,5.346-.481c.043.129-.162.463-.176.486,1.173.2,1.55.5,1.65.859a5.988,5.988,0,0,0,1.348-.026c0-.05,0-.1,0-.146a6.837,6.837,0,0,1,2.809-.7l-1.443.017V11.6a4.628,4.628,0,0,1,4.4.283c.528.012.989.033,1.332.053l-.13-2.218c-.231-.521-.519-1.193-.825-1.957a3.733,3.733,0,0,0-.565-.99,8.059,8.059,0,0,1,.668-.991,2.807,2.807,0,0,1,.563-.552.938.938,0,0,1,.234-.118.565.565,0,0,1,.126-.028.436.436,0,0,1,.356.137.448.448,0,0,0-.357-.16.6.6,0,0,0-.133.022.978.978,0,0,0-.249.108,2.857,2.857,0,0,0-.607.532,8.1,8.1,0,0,0-.7.925,2.887,2.887,0,0,0-.493-.43c.179-.593.379-1.181.607-1.757a9.019,9.019,0,0,1,.523-1.118L34.7,3.3a2.865,2.865,0,0,1,.327-.466,1.128,1.128,0,0,1,.123-.119.914.914,0,0,1,.109-.08c.015-.008.03-.015.046-.022,1.99,2.239,1.363,5.875.962,7.45l.153,2.613a5.167,5.167,0,0,0,.04.69l.029.494s.936.356,1.069.891a23.753,23.753,0,0,1-.711,4.877,20.606,20.606,0,0,1-2.007,7.242c-.216.414-.374.77-.505,1.087l1.218,2.165,13.844,6.2s-1.383,10.7-1.5,10.466ZM36.589,14.711h0c.04.53.073,1.233.095,1.993a12.04,12.04,0,0,0,.181-1.77,1.014,1.014,0,0,0-.276-.223Zm-6.226,1.783h0c1.184.675,3.757.512,4.314-.045s.542-2.473.52-3.208c-.005-.184.049-.715-.49-.824-1.617-.328-5.268.061-5.452.361a1.447,1.447,0,0,0-.121.266,6.143,6.143,0,0,1,4.379.17,1.75,1.75,0,0,1,1,1.274l-.176.028a1.582,1.582,0,0,0-.9-1.145,6.213,6.213,0,0,0-4.4.135,3.049,3.049,0,0,0,1.336,2.988Zm-9.677-2.674h0a1.846,1.846,0,0,1,.867-.722,5.917,5.917,0,0,1,5.358.166.821.821,0,0,0-.157-.49c-.379-.423-2.807-.757-4.388-.557s-1.678.772-1.678.772a7.452,7.452,0,0,0,0,.831Zm.946-.562h0a1.621,1.621,0,0,0-.912,1.058,3.854,3.854,0,0,0,.409,1.628,3.029,3.029,0,0,0,2.246.832c.861.045,2.643-.171,3.022-1.129a7.273,7.273,0,0,0,.516-2.163,5.665,5.665,0,0,0-5.281-.226Zm-3.471.049h0a7.634,7.634,0,0,1,2.251.955c-.025-.335-.043-.68-.082-1.022a16.984,16.984,0,0,0-2.17.067Zm-4.15,1.684h0a.771.771,0,0,1,.112-.012c.414,0,.966.618,1.346,1.306-.012-.063-.023-.126-.036-.189-.1-.476-.2-.953-.311-1.434l-.32.075a5.917,5.917,0,0,0-.792.254Zm.327.231h0a.47.47,0,0,0-.215-.064.487.487,0,0,0-.364.149,5.985,5.985,0,0,0-.181.971,3.329,3.329,0,0,0,.14.59c.07.211.137.428.2.644a12.269,12.269,0,0,1,.418-2.289Zm1.688,5.712h0c-.006-.337-.017-.671-.044-1.006-.007-.08-.014-.161-.021-.241a.621.621,0,0,1-.113.074l-.173.056a.561.561,0,0,0,.24-.349c-.012-.127-.13-.127-.222-.193a1.975,1.975,0,0,1-.766-.876,1.415,1.415,0,0,1,.2-1.386,2.69,2.69,0,0,0,.2-.611,3.654,3.654,0,0,0-.838-1.074,7.353,7.353,0,0,0-.326,2.994,2.582,2.582,0,0,0,.523,1.087.6.6,0,0,0,.568.067c.085-.035.234-.052.243-.016,0,0-.177.1-.208.115a.963.963,0,0,1-.366.089.571.571,0,0,1-.339-.111.678.678,0,0,1-.143-.147c.071.2.143.394.213.585l.015.041.01.043a7.454,7.454,0,0,0,.336,1.074,2.331,2.331,0,0,0,.534.047c.229,0,.414-.018.416-.018l.057-.242Zm-.7-3.668h0a.98.98,0,0,0-.23,1.068,1.793,1.793,0,0,0,.7.8c.044.031.084.061.121.089-.039-.405-.086-.809-.149-1.212-.049-.333-.1-.665-.164-1-.013-.039-.029-.078-.044-.117a2.58,2.58,0,0,1-.236.373ZM32.015,30.13h0a3.607,3.607,0,0,0,1.492-2.019,15.739,15.739,0,0,1,.7-1.566,19.415,19.415,0,0,0,1.927-6.721s.035-.416.039-.429c.015-1.485-.028-3.342-.107-4.5l-.289-.989-.012-.209-.034.011c-.29.089-.245.846-.379,1.893a1.651,1.651,0,0,1-1.247,1.559c-.332.137-3.253.267-4.3-.646a4.405,4.405,0,0,1-1.18-2.763,1.014,1.014,0,0,0-.736-.111.83.83,0,0,0-.711.328,6.52,6.52,0,0,1-.492,1.751c-.475,1.01-2.287,1.663-4.366,1.188a2.162,2.162,0,0,1-1.856-2.116,9.166,9.166,0,0,0-2.878-1.445,15.556,15.556,0,0,0-2.039.234c-.1.039-.163.164-.2.325v.7l-.028.007c0,.053.007.1.011.151a9.8,9.8,0,0,1,.5,1.223,11.4,11.4,0,0,1,.464,1.939,9.486,9.486,0,0,1,.111,1.388l0-.008.061,2.644a8.566,8.566,0,0,0,.45,3.408c.46.794,2.96,4.792,7.033,5.491a22.738,22.738,0,0,0,3.819.375,7.031,7.031,0,0,0,4.239-1.094Zm-1.184,8.239h0a.736.736,0,0,0-.419-.6,1.7,1.7,0,0,0-1.509-.057.982.982,0,0,0-.325.251.606.606,0,0,0,0,.805.991.991,0,0,0,.325.251,1.7,1.7,0,0,0,1.509-.057.736.736,0,0,0,.419-.6ZM33.7,48.262h0a.736.736,0,0,0-.419-.6,1.7,1.7,0,0,0-1.509-.057.985.985,0,0,0-.325.251.606.606,0,0,0,0,.805.989.989,0,0,0,.325.251,1.7,1.7,0,0,0,1.509-.056.736.736,0,0,0,.419-.6Zm2.547-16.917h0a21.176,21.176,0,0,1,.041,2.244c-.017.748-.062,1.5-.122,2.241a41.6,41.6,0,0,1-.567,4.446c-.035.183-.076.364-.122.542a1.953,1.953,0,0,1-.083.254.279.279,0,0,1-.025.051l-.006.01a.233.233,0,0,1-.063-.026,2.7,2.7,0,0,1-.43-.327c-.139-.122-.274-.25-.408-.38-.534-.521-1.042-1.072-1.554-1.618s-1.012-1.1-1.511-1.662l-1.5-1.676q1.412,1.749,2.908,3.43c.5.561,1.008,1.111,1.541,1.642.134.132.27.263.411.389a2.823,2.823,0,0,0,.461.354.288.288,0,0,0,.2.043.142.142,0,0,0,.069-.044l.029-.04a.409.409,0,0,0,.038-.074,2.151,2.151,0,0,0,.095-.278c.05-.184.092-.368.129-.553.143-.74.241-1.484.329-2.23s.157-1.493.2-2.242a25.26,25.26,0,0,0-.056-4.495ZM33.274,47.687h0a1.61,1.61,0,0,0-1.424.057.547.547,0,0,0,0,1.037,1.611,1.611,0,0,0,1.425.057.9.9,0,0,0,.3-.228.518.518,0,0,0,0-.694.9.9,0,0,0-.3-.228ZM27.246,23.566h0l-1.61-.65a3.434,3.434,0,0,1,.984-.263,7.4,7.4,0,0,1,1.559.3c.156,0,.49-.245.735-.3a3.448,3.448,0,0,1,1.1.511l-1.1.28a4.962,4.962,0,0,0,1.176-.234c.311.185.562.346.562.346s.468.067.379-.134a18.532,18.532,0,0,0-2.362-1.679c-.111-.031-.445.3-.445.3s-.089-.356-.691-.289a9.536,9.536,0,0,0-2.1,1.081c-.486.294-.913.561-1.113.672.215-.107.741-.362,1.262-.566a3.041,3.041,0,0,0,1.668.627Zm-3.032-.011h0a.958.958,0,0,0,.1-.051Zm8.153-8.979Zm-.351.765h0a3.384,3.384,0,0,0,.7-.075l-.037-.175a2.406,2.406,0,0,1-2.373-.606A.417.417,0,0,1,30.4,14.3a1.036,1.036,0,0,1,.63-.262c.183-.016.033.315.282.536a3.363,3.363,0,0,0,1.054,0,.419.419,0,0,0,.089-.57.926.926,0,0,1,.758.456c.067.018.535.093.646,0s-.512-.9-1.752-1.076a2.424,2.424,0,0,0-2.332,1.076,3.341,3.341,0,0,0,2.24.879Zm-10.631-.986h0c.334.334,1.849.221,1.849.221s-.445-.132-.423-.265.691-.205.691-.205-.118.441.026.5a2.283,2.283,0,0,0,1.229-.011.572.572,0,0,1,.082-.368c.164,0,.369.2.44.275a.522.522,0,0,1-.26.341,1.539,1.539,0,0,1-.521.15c-.371.05-.752.056-1.129.08.379.006.756.029,1.138.008a1.636,1.636,0,0,0,.573-.12.684.684,0,0,0,.361-.39,1.325,1.325,0,0,0,.213.037.8.8,0,0,1-.095.437,1.016,1.016,0,0,1-.344.342,2.535,2.535,0,0,1-.97.318,5.234,5.234,0,0,1-1.043.039,5.433,5.433,0,0,1-1.036-.159,5.462,5.462,0,0,0,1.033.2,5.3,5.3,0,0,0,1.058.005,2.644,2.644,0,0,0,1.028-.292,1.16,1.16,0,0,0,.409-.376.967.967,0,0,0,.138-.53.242.242,0,0,0,.047-.015c.178-.093-.46-1.023-1.886-1.045a4.872,4.872,0,0,0-2.606.824Zm4.355,5.578h0a1.02,1.02,0,0,0,.339.1.7.7,0,0,0,.372-.071.761.761,0,0,0,.251-.213,1.344,1.344,0,0,1,.49-.1c.431.005.742.4,1.035.562s.7-.226.791-.289a.326.326,0,0,1,.15-.024l-.011.178a4.821,4.821,0,0,0,.69-.045,1.986,1.986,0,0,0,.347-.08.725.725,0,0,0,.327-.2.382.382,0,0,0,.088-.192,1.268,1.268,0,0,0,.008-.178,1.123,1.123,0,0,0-.061-.345.878.878,0,0,0-.439-.505.833.833,0,0,1,.353.529,1,1,0,0,1,.013.316,1.1,1.1,0,0,1-.027.154.214.214,0,0,1-.065.1.95.95,0,0,1-.563.136c.153-.172.057-.519-.256-.674-.338-.168-.42.182-.524.42s-.535.327-1.01.282-.713-.653-1.006-.7a.383.383,0,0,0-.391.224l-.1-.017a.638.638,0,0,1-.225.43.454.454,0,0,1-.231.079.83.83,0,0,1-.273-.038.505.505,0,0,1-.335-.413,1.16,1.16,0,0,1,.082-.606,1.2,1.2,0,0,0-.171.615.68.68,0,0,0,.092.328.655.655,0,0,0,.26.24Z" transform="translate(0 0)"/>
      </g>
    </g>
  </g>
</svg>
