<svg id="Grupo_35" data-name="Grupo 35" xmlns="http://www.w3.org/2000/svg" width="37.5" height="37.5" viewBox="0 0 37.5 37.5">
  <defs>
    <style>
      .cls-1 {
        fill: #ee1515;
      }
    </style>
  </defs>
  <path id="Caminho_92" data-name="Caminho 92" class="cls-1" d="M32.167,19.667V3H11.333v8.333H3V40.5H19.667V32.167h4.167V40.5H40.5V19.667ZM11.333,36.333H7.167V32.167h4.167Zm0-8.333H7.167V23.833h4.167Zm0-8.333H7.167V15.5h4.167ZM19.667,28H15.5V23.833h4.167Zm0-8.333H15.5V15.5h4.167Zm0-8.333H15.5V7.167h4.167ZM28,28H23.833V23.833H28Zm0-8.333H23.833V15.5H28Zm0-8.333H23.833V7.167H28Zm8.333,25H32.167V32.167h4.167Zm0-8.333H32.167V23.833h4.167Z" transform="translate(-3 -3)"/>
</svg>
