<svg id="Camada_x0020_1" xmlns="http://www.w3.org/2000/svg" width="50" height="50" viewBox="0 0 50 50">
  <defs>
    <style>
      .cls-1 {
        fill: none;
      }

      .cls-2 {
        fill: #ee1515;
        fill-rule: evenodd;
      }
    </style>
  </defs>
  <rect id="Retângulo_28" data-name="Retângulo 28" class="cls-1" width="50" height="50"/>
  <path id="Caminho_89" data-name="Caminho 89" class="cls-2" d="M.716.107C.6.175.61.283.791.81c.115.341.268.908.343,1.259a7.3,7.3,0,0,0,.383,1.2c.191.44.219.606.144.859a2.954,2.954,0,0,0-.086.635A29.794,29.794,0,0,0,3.305,9.2a10.538,10.538,0,0,0,3.231,4.041c.316.205.582.44.582.508s-.345,1.767-.755,3.759S5.208,23.3,4.739,25.928,3.812,31,3.745,31.356a1.63,1.63,0,0,0-.048.809c.144.253.593.439,1.635.683.927.205.974.233,1.023.488s.144.312.908.595l.861.312.029,4.647.02,4.647-.239.165a.49.49,0,0,0-.239.488v.332H5.208V45.89H2.054v4.1H49.37v-4.1H46.024v-.976H44.466c-1.52,0-1.558-.009-1.567-.205a.942.942,0,0,0-.2-.42c-.172-.185-.21-.538-.392-3.036-.115-1.562-.239-3.358-.3-4s-.1-2.206-.115-3.465l-.029-2.294.526-.068c.726-.108,1.147-.263,1.147-.42,0-.292-.316-2.45-.726-4.968l-.421-2.626.248-.429c.3-.518.4-.565.87-.409.343.117.363.108.622-.215a17.445,17.445,0,0,0,1.644-3.329,2.119,2.119,0,0,0,.048-1.865,23.913,23.913,0,0,0-2.18-2.9,2,2,0,0,1-.392-.606A4.227,4.227,0,0,0,42.087,12.2a9.356,9.356,0,0,0-1.491-.292c-1.328-.205-1.615-.312-2.14-.82a.787.787,0,0,1-.268-.732c0-.273.038-.488.1-.488.25,0,.6-1.279.392-1.406a.81.81,0,0,1-.106-.488A2.23,2.23,0,0,0,37.307,5.9a3.555,3.555,0,0,0-.994-.127,1.951,1.951,0,0,0-1.808.859c-.268.38-.286.488-.306,1.308a8.918,8.918,0,0,1-.067,1.094.845.845,0,0,0,.124.538,17.76,17.76,0,0,1,.774,1.61c0,.029-.057.049-.135.049a1.367,1.367,0,0,0-.507.439,2.057,2.057,0,0,1-1.186.732,5.2,5.2,0,0,1-.985.294,1.933,1.933,0,0,0-1.156.791,9.46,9.46,0,0,0-.85,3.212c-.632,4.988-.927,8.806-.746,9.8.057.332.135.809.162,1.074a1.411,1.411,0,0,0,1.157,1.23l.487.127-.048,1.543-.048,1.543.23.048a6.561,6.561,0,0,0,.737.088,1.864,1.864,0,0,1,.545.088c.106.1.669,8.112.755,10.523L33.482,44l-.372.215a.956.956,0,0,0-.43.459l-.057.244H29.488v.976H20.981V44.526h-.936c-.832,0-.965-.02-1.119-.205a4.891,4.891,0,0,0-.832-.556c-.6-.341-.649-.38-.688-.751-.086-.7-.268-8.26-.21-8.327a5.421,5.421,0,0,1,1.023-.1l.956-.039-.056-1.142c-.029-.626-.115-3.388-.2-6.141l-.144-5,.717-.809c1.423-1.582,2.027-2.558,2.007-3.241q-.043-1.1-2.18-4.559c-1.175-1.894-1.042-1.777-2.428-2.226s-1.472-.5-2.027-1.006c-.392-.371-.4-.38-.334-.868a1.181,1.181,0,0,1,.343-.762c.421-.38.641-1.406.334-1.523-.106-.039-.115-.137-.047-.44a1.945,1.945,0,0,0-1.071-2.079,2.482,2.482,0,0,0-2.295-.049A1.772,1.772,0,0,0,10.915,6.3c.009.664.192,2.676.268,3.008.057.215.038.273-.076.273-.086,0-.278.156-.44.352l-.287.361-.3-.255A3.346,3.346,0,0,0,9.1,9.569c-1.673-.5-1.6-.459-2.456-1.347a10.182,10.182,0,0,1-1.808-2.6C4.281,4.658,3.754,3.77,3.65,3.654a1.144,1.144,0,0,1-.2-.694,2.355,2.355,0,0,0-.316-1.006A7.261,7.261,0,0,1,2.674.89c-.2-.635-.3-.78-.535-.78-.221,0-.23.165-.048.85a1.8,1.8,0,0,1,.1.518A7.528,7.528,0,0,1,1.622.745C1.086.013.982-.064.714.11ZM36.9,36.15c.057-3.847.076-4.12.23-4.12s.21.215.421,1.338c.372,2.079.8,4.753.918,5.838.057.538.277,2.021.487,3.3s.372,2.344.372,2.373a13.12,13.12,0,0,1-1.4.039H36.531l.057-.508C36.723,43.285,36.837,40.084,36.9,36.15ZM13.237,34.667H13.5l.172,2.245a59.282,59.282,0,0,0,.793,7.205.23.23,0,0,1,.115.226c0,.175-.086.185-1.721.185-1.693,0-1.72,0-1.72-.205A.453.453,0,0,1,11.267,44a15,15,0,0,0,.383-3.476c.144-1.855.3-3.905.345-4.568s.1-1.25.1-1.308.153-.088.44-.04c.25.029.564.059.708.059Z" transform="translate(0 0)"/>
</svg>
