<svg xmlns="http://www.w3.org/2000/svg" width="50" height="50" viewBox="0 0 50 50">
  <defs>
    <style>
      .cls-1 {
        fill: #ee1515;
      }

      .cls-2 {
        fill: none;
      }
    </style>
  </defs>
  <g id="Camada_x0020_1" transform="translate(0.002)">
    <g id="_1299829492032" transform="translate(-0.002 1.166)">
      <path id="Caminho_75" data-name="Caminho 75" class="cls-1" d="M79.632,9.058a7.214,7.214,0,0,0-1.975,1.406c-4.293,4.673.608,12.308,6.5,10.068a6.145,6.145,0,0,0,3.836-3.8c2.014-4.786-3.495-9.84-8.358-7.675Z" transform="translate(-65.648 -8.542)"/>
      <path id="Caminho_76" data-name="Caminho 76" class="cls-1" d="M202.2,9.553a7.089,7.089,0,0,0-3.267,3.077,6.9,6.9,0,0,0,.341,6.041,8.187,8.187,0,0,0,5.205,3,8.2,8.2,0,0,0,5.205-3c1.747-2.621.912-6.459-1.862-8.509a7.4,7.4,0,0,0-5.623-.608h0Z" transform="translate(-171.305 -9.15)"/>
      <path id="Caminho_77" data-name="Caminho 77" class="cls-1" d="M18.6,100.66a6.69,6.69,0,0,0-3.457,4.217,6.14,6.14,0,0,0,1.709,5.623c1.368,1.444,1.6,1.558,3.876,1.672,1.937.113,2.659,0,3.685-.609a6.188,6.188,0,0,0-5.813-10.9h0Z" transform="translate(-12.977 -87.606)"/>
      <path id="Caminho_78" data-name="Caminho 78" class="cls-1" d="M262.517,100.784c-4.027,1.975-4.255,8.4-.38,10.752,2.545,1.519,6.687.722,8.358-1.634a6.582,6.582,0,0,0,.228-6.725A6.321,6.321,0,0,0,262.517,100.784Z" transform="translate(-223.952 -87.616)"/>
      <path id="Caminho_79" data-name="Caminho 79" class="cls-1" d="M141.118,176.548c-2.736,1.481-3.761,3.267-3.533,6.079a5.917,5.917,0,0,0,3.343,5.129,5.372,5.372,0,0,0,4.976.228,5.9,5.9,0,0,0,3.761-5.851A6.236,6.236,0,0,0,146.93,177a6.549,6.549,0,0,0-5.813-.456Z" transform="translate(-118.776 -153.198)"/>
      <path id="Caminho_80" data-name="Caminho 80" class="cls-1" d="M2.926,200.383a8.355,8.355,0,0,0-2.887,6.192c-.113,2.165-.076,2.242,1.216,3,1.178.722,1.937.8,6.838.8,4.369,0,5.812-.153,6.951-.646,1.406-.646,1.406-.684,1.406-2.849a8.125,8.125,0,0,0-2.774-6.459c-1.368-1.178-1.443-1.216-2.736-.684a8.157,8.157,0,0,1-2.659.569,8.165,8.165,0,0,1-2.659-.569c-1.291-.532-1.368-.494-2.7.646h0Z" transform="translate(0.002 -173.349)"/>
      <path id="Caminho_81" data-name="Caminho 81" class="cls-1" d="M245.363,199.679a7.981,7.981,0,0,0-2.393,6.307c0,1.747.076,1.861,1.444,2.47,2.089.95,11.777.912,13.9-.038l1.481-.646-.228-2.47a8.361,8.361,0,0,0-2.736-6.041c-1.253-1.253-1.291-1.291-2.736-.76a8.178,8.178,0,0,1-5.623-.038L247,197.93l-1.634,1.747h0Z" transform="translate(-209.8 -172.075)"/>
      <path id="Caminho_82" data-name="Caminho 82" class="cls-1" d="M123.154,277.819c-1.862,1.937-2.242,2.736-2.508,5.585-.228,2.393-.19,2.431.874,3,2.812,1.444,9.308,1.634,13.753.418l1.975-.569v-2.165c0-2.621-1.368-5.736-3.077-6.953a2.11,2.11,0,0,0-2.47-.341,13.521,13.521,0,0,1-6.231-.19c-.76-.19-1.216.038-2.317,1.216Z" transform="translate(-104.078 -239.957)"/>
    </g>
    <rect id="Retângulo_24" data-name="Retângulo 24" class="cls-2" width="50" height="50" transform="translate(-0.002)"/>
  </g>
</svg>
