<svg xmlns="http://www.w3.org/2000/svg" width="50" height="50" viewBox="0 0 50 50">
  <defs>
    <style>
      .cls-1 {
        fill: none;
      }

      .cls-2 {
        fill: #ee1515;
        fill-rule: evenodd;
      }
    </style>
  </defs>
  <g id="Camada_x0020_1" transform="translate(0 0.002)">
    <rect id="Retângulo_27" data-name="Retângulo 27" class="cls-1" width="50" height="50" transform="translate(0 -0.002)"/>
    <path id="Caminho_86" data-name="Caminho 86" class="cls-2" d="M27.777,3.179c1.465.355,1.511,1.02.266,3.6-1.6,3.287-3.466,3.466-5.286.445C21.38,5,21.6,3.58,23.335,3a5.6,5.6,0,0,1,2.311-.266c.488.089,1.421.312,2.132.445Zm9.967,9.283c1.112-1.421,1.245-3.154.355-5.286-2.178-5.2-9.551-8.307-16.258-6.8-4.263.979-7.019,2.932-8.662,6.219-1.332,2.709-1.378,3.775-.222,5.953a5.875,5.875,0,0,1,.621,3.91c-.222,1.955-.133,2.443.8,3.553,1.6,1.955,3.466,6.129,3.466,7.686,0,1.332-.222,1.511-4.263,3.42-2.354,1.109-4.353,2-4.442,2-.133,0-1.687.711-3.509,1.554C1.054,36.851.52,37.916.52,44.889V50H50.273V45.114c-.031-4.674-.611-7.142-1.863-8.309a32.575,32.575,0,0,0-4.034-2.214c-1.2-.6-2.584-1.262-4.007-1.919L33.174,29.3l-.133-1.733c-.133-1.733.976-4.353,3.2-7.507.8-1.155.889-1.822.667-4.976a4.113,4.113,0,0,1,.843-2.62ZM23.973,34.228a12.979,12.979,0,0,1-1.066,2.443l-1.2,2.4-.933-1.2c-.534-.667-1.643-2.311-2.487-3.686-1.2-2.045-1.378-2.533-.843-2.888.843-.532.621-.621,3.686,1.245,1.467.889,2.755,1.643,2.842,1.689Zm.133,4.176a7.366,7.366,0,0,1,1.245-2.175A8.615,8.615,0,0,1,26.6,38.318c.843,1.82.889,2.221.4,3.2-.532.933-.488,1.467.222,3.553a6.639,6.639,0,0,1,.624,2.62c-.445.488-5.109.488-5.109,0a22.12,22.12,0,0,1,.711-2.842c.534-1.866.578-2.576.179-3.333-.445-.8-.355-1.332.488-3.108Zm2.753-4.263A62.777,62.777,0,0,1,32.5,30.9a2.193,2.193,0,0,1,.8.4c.488.266.089,1.2-1.776,4a22.558,22.558,0,0,1-2.62,3.6c-.445,0-2.354-4.442-2.045-4.754Z" transform="translate(-0.394 0)"/>
  </g>
</svg>
