<svg xmlns="http://www.w3.org/2000/svg" width="50" height="50" viewBox="0 0 50 50">
  <g id="Grupo_101" data-name="Grupo 101" transform="translate(-916 -3426)">
    <rect id="Retângulo_72" data-name="Retângulo 72" width="50" height="50" transform="translate(916 3426)" fill="none"/>
    <path id="dollar-sign-solid" d="M30.055,0A3.124,3.124,0,0,1,33.18,3.125V6.609c.156.021.3.043.459.065,1.035.154,4.121.651,5.391.973a3.193,3.193,0,0,1,2.256,3.8,3.13,3.13,0,0,1-3.8,2.266,39.866,39.866,0,0,0-4.766-.85,15.769,15.769,0,0,0-7.666.469c-1.785.684-2.526,1.65-2.723,2.734a3.251,3.251,0,0,0,.126,2.012,3.371,3.371,0,0,0,1.263,1.309c1.588,1.045,4.01,1.748,7.154,2.6l.273.078c2.773.752,6.172,1.68,8.691,3.35a9.553,9.553,0,0,1,3.477,3.877,9.285,9.285,0,0,1,.615,5.684,10.12,10.12,0,0,1-6.416,7.568,16.22,16.22,0,0,1-4.336,1.074v3.262a3.125,3.125,0,0,1-6.25,0V43.467c-.039,0-.088-.1-.127-.02h-.02a41.533,41.533,0,0,1-8.936-2.568,3.13,3.13,0,0,1-1.586-4.131A3.055,3.055,0,0,1,20.3,35.166a37.41,37.41,0,0,0,7.432,2.1,14.629,14.629,0,0,0,7.432-.508,3.767,3.767,0,0,0,2.617-2.822,3.249,3.249,0,0,0-.127-2.012,3.4,3.4,0,0,0-1.26-1.309c-1.592-1.045-4.014-1.748-7.158-2.6l-.273-.078c-2.773-.752-6.174-1.68-8.7-3.35A9.541,9.541,0,0,1,16.8,20.713a9.42,9.42,0,0,1-.612-5.771,9.906,9.906,0,0,1,6.642-7.448,17.144,17.144,0,0,1,4.105-.977V3.125A3.124,3.124,0,0,1,30.055,0Z" transform="translate(910.008 3426)" fill="#ee1515"/>
  </g>
</svg>
