<svg xmlns="http://www.w3.org/2000/svg" width="50" height="50" viewBox="0 0 50 50">
  <g id="Grupo_103" data-name="Grupo 103" transform="translate(-688 -3941)">
    <rect id="Retângulo_73" data-name="Retângulo 73" width="50" height="50" transform="translate(688 3941)" fill="none"/>
    <path id="hands-praying-solid" d="M21.25,16.477a2.637,2.637,0,0,0-2.5,2.747V26.1a1.256,1.256,0,1,1-2.5,0V19.528a8.832,8.832,0,0,1,1.074-4.243L23.4,4.146A2.92,2.92,0,0,0,22.539.375a2.335,2.335,0,0,0-3.312.782c-.078.021-.047.021-.055.043L10.008,16.314a8.816,8.816,0,0,0-1.258,4.58v6.9l-7.041,2.5A2.92,2.92,0,0,0,0,32.977v8.249A2.6,2.6,0,0,0,2.5,43.9a2.048,2.048,0,0,0,.625-.086l14.008-4.006c3.891-1.149,6.617-5.119,6.617-9.579v-11A2.642,2.642,0,0,0,21.25,16.477Zm27.039,13.9L41.25,27.8V20.9a8.783,8.783,0,0,0-1.259-4.576L30.827,1.211c-.01-.021-.049-.021-.059-.043A2.357,2.357,0,0,0,27.457.375,2.932,2.932,0,0,0,26.6,4.157l6.074,11.129a8.773,8.773,0,0,1,1.078,4.251V26.11a1.256,1.256,0,1,1-2.5,0V19.159a2.508,2.508,0,1,0-5-.075V30.006a10.009,10.009,0,0,0,6.621,9.659l14,4.234a2.607,2.607,0,0,0,.625.086A2.657,2.657,0,0,0,50,41.313V33.064A2.775,2.775,0,0,0,48.289,30.373Z" transform="translate(688 3944.015)" fill="#ee1515"/>
  </g>
</svg>
