<svg xmlns="http://www.w3.org/2000/svg" width="50" height="50" viewBox="0 0 50 50">
  <g id="Grupo_105" data-name="Grupo 105" transform="translate(-364 -3972)">
    <rect id="Retângulo_74" data-name="Retângulo 74" width="50" height="50" transform="translate(364 3972)" fill="none"/>
    <path id="cross-solid" d="M37.411,15.625v6.25A3.114,3.114,0,0,1,34.374,25H25V46.875A3.115,3.115,0,0,1,21.962,50H15.624A3.132,3.132,0,0,1,12.5,46.875V25H3.124A3.132,3.132,0,0,1,0,21.875v-6.25A3.132,3.132,0,0,1,3.124,12.5H12.5V3.125A3.132,3.132,0,0,1,15.624,0h6.25a3.058,3.058,0,0,1,3.037,3.125V12.5h9.375A3.079,3.079,0,0,1,37.411,15.625Z" transform="translate(371.001 3972)" fill="#ee1515"/>
  </g>
</svg>
