<svg xmlns="http://www.w3.org/2000/svg" width="40" height="40" viewBox="0 0 40 40">
  <path id="instagram" d="M20,0c-5.427,0-6.11.025-8.243.12A14.737,14.737,0,0,0,6.9,1.05,9.793,9.793,0,0,0,3.358,3.357,9.818,9.818,0,0,0,1.05,6.9a14.65,14.65,0,0,0-.93,4.85C.025,13.887,0,14.568,0,20s.025,6.11.12,8.243A14.734,14.734,0,0,0,1.05,33.1,10.239,10.239,0,0,0,6.9,38.95a14.683,14.683,0,0,0,4.855.93c2.135.095,2.815.12,8.248.12s6.11-.025,8.245-.12a14.764,14.764,0,0,0,4.858-.93A10.239,10.239,0,0,0,38.95,33.1a14.8,14.8,0,0,0,.93-4.855c.095-2.132.12-2.812.12-8.245s-.025-6.112-.12-8.247A14.782,14.782,0,0,0,38.95,6.9a9.815,9.815,0,0,0-2.308-3.543A9.777,9.777,0,0,0,33.1,1.05,14.713,14.713,0,0,0,28.243.12C26.108.025,25.43,0,20,0H20ZM18.208,3.605H20c5.34,0,5.972.017,8.08.115a11.083,11.083,0,0,1,3.715.688,6.205,6.205,0,0,1,2.3,1.5,6.179,6.179,0,0,1,1.495,2.3,10.985,10.985,0,0,1,.687,3.713c.1,2.108.118,2.74.118,8.078s-.02,5.972-.118,8.08a11.065,11.065,0,0,1-.687,3.712,6.629,6.629,0,0,1-3.8,3.792,11,11,0,0,1-3.712.69c-2.108.1-2.74.118-8.08.118s-5.975-.022-8.082-.118a11.047,11.047,0,0,1-3.713-.69,6.2,6.2,0,0,1-2.3-1.495,6.2,6.2,0,0,1-1.5-2.3,11.05,11.05,0,0,1-.688-3.712c-.1-2.108-.115-2.74-.115-8.082s.02-5.97.115-8.078A11.066,11.066,0,0,1,4.41,8.2a6.205,6.205,0,0,1,1.5-2.3,6.179,6.179,0,0,1,2.3-1.5,11.047,11.047,0,0,1,3.713-.69c1.845-.085,2.56-.11,6.288-.112v.005Zm12.47,3.32a2.4,2.4,0,1,0,2.4,2.4,2.4,2.4,0,0,0-2.4-2.4ZM20,9.73A10.272,10.272,0,1,0,30.275,20,10.271,10.271,0,0,0,20,9.73Zm0,3.6A6.667,6.667,0,1,1,13.335,20,6.668,6.668,0,0,1,20,13.333Z" fill="#fff"/>
</svg>
