<svg xmlns="http://www.w3.org/2000/svg" width="51" height="51" viewBox="0 0 51 51">
  <defs>
    <style>
      .cls-1, .cls-4 {
        fill: #fff;
      }

      .cls-1 {
        stroke: #ee1515;
      }

      .cls-2 {
        fill: #ee1515;
      }

      .cls-2, .cls-3 {
        fill-rule: evenodd;
      }

      .cls-3 {
        fill: #024fa2;
      }
    </style>
  </defs>
  <g id="Camada_x0020_1" transform="translate(-3.74 -3.74)">
    <path id="Caminho_104" data-name="Caminho 104" class="cls-1" d="M25,0a26.11,26.11,0,0,1,4.2.351c.548.086,1.09.19,1.9.378A24.263,24.263,0,0,1,43.819,8.465,25.042,25.042,0,1,1,21.714.214,24.132,24.132,0,0,1,25,0Z" transform="translate(4.24 4.24)"/>
    <path id="Caminho_99" data-name="Caminho 99" class="cls-2" d="M43.389,63.228l-.11-1.319c-.493.157-.741.373-1.1.5a9.57,9.57,0,0,0-1.225.456l.158.586q1.155-.058,2.278-.227Zm-2.412.231a2.65,2.65,0,0,1-.15-.368l-.544.2.089.19c.2,0,.405-.011.606-.02Zm-1.293.022-.031-.069a43.385,43.385,0,0,0-7.637-11.307c-.874-.953-1.728-1.866-2.665-2.739L27.94,48.11c-.9-.855-.7-.374-2.176-.568-1.574-.206-2.835-.879-3.278-2.114-.406-1.137.148-1.371-.3-2.225a1.645,1.645,0,0,1,.1-2.008,4.273,4.273,0,0,1-1.311-3.288,3.758,3.758,0,0,1,2-2.614c-.069-1.22-.321-2.979.612-3.957.464-.488.48-.3,1.022-.592.174-1.378.335-2.525,1.757-2.666a9.853,9.853,0,0,1,1.961.28c.744.021,1.558.05,2.3.027-.011-.534-.24-1.448.272-1.821.3-.221.026.057.412.074.123-.159.012-.156.109-.321a4.087,4.087,0,0,1,4.716,3.5c.841-.02,1.683-.582,2.59-.208a2.926,2.926,0,0,1,.917.627,7.436,7.436,0,0,0,.876.741c.661.242,3.8-.958,5.53-.2.863.379,1.033.843,1.157,1.93a28.886,28.886,0,0,1-.074,4.486,13.24,13.24,0,0,1-.043,1.57,10.865,10.865,0,0,0-.639,2.484c.235.156.586.442.869.612l.772.557c3.771,2.6,9.136,5.179,13.9,5.744A23.575,23.575,0,1,0,16.33,39.912,23.869,23.869,0,0,0,18.272,49.3,23.469,23.469,0,0,0,39.684,63.482ZM61.845,48.54a18.533,18.533,0,0,1-3.256-.624c-5.36-1.547-10.64-5.641-11.814-6.073a18.448,18.448,0,0,0,1.512,1.218c1.3,1,2.578,2.083,3.759,3.184a47.275,47.275,0,0,0,6.169,4.92c.71.4.222.22.439.676.458-.1.071-.2.618.028.338.143.276-.035.719.111l.137.044A23.445,23.445,0,0,0,61.845,48.54Z" transform="translate(-10.662 -10.671)"/>
    <path id="Caminho_100" data-name="Caminho 100" class="cls-2" d="M65.044,110.377a2.012,2.012,0,0,1,.543-1.533,1.689,1.689,0,0,0-1.14,1.166,3.909,3.909,0,0,0-.35-.654,4.938,4.938,0,0,1-.313-.807,5.408,5.408,0,0,1-.256-1.946c.107-1.552.891-2.026,2.448-2.035l-.259-.129a2.99,2.99,0,0,0-.347-.067,1.9,1.9,0,0,0-1.77.612c-.663-.189-1.853-1.12-2.674-.475-.683.536-.514,1.9-.439,2.836-1.5-.235-1.8.4-1.8,1.91a16.376,16.376,0,0,0,.384,2.108c.009.091-.057-.04.039.107a2.515,2.515,0,0,1,.35.663,2.32,2.32,0,0,0-2.106.1,2.251,2.251,0,0,0-.906,1.8,3.009,3.009,0,0,0,.687,1.8,6.7,6.7,0,0,0,1.225,1.4c-1.587.548-.54,1.157-.357,1.8.03.105-.078,1.113-.048,1.444.185,2.111,3,2.976,4.981,2.085a14.691,14.691,0,0,1,1.82,1.709c.285.289.6.567.88.874A68.719,68.719,0,0,1,74.7,137.273a13.068,13.068,0,0,0,.653,1.143l.586-.093a30.933,30.933,0,0,0-2.451-4.682,46.271,46.271,0,0,0-2.82-4.267c-.513-.713-.981-1.332-1.519-1.988l-2.471-2.861c-.5-.6-2.433-2.327-2.665-2.713.683-.844.826-.587.755-2.3.146.195.337.6.476.831,1.189,1.936,3.554,4.143,4.232,5.349-.2-.133-.115-.086-.266-.26l-.732-.811a14.151,14.151,0,0,0-3.228-2.93l3.018,3.775a56.5,56.5,0,0,1,7.864,12.758c.341-.093.353-.038.6-.23l1.829-.741c.053-1.293-1.14-5.363-1.532-6.652a55.178,55.178,0,0,0-6.648-13.841,14.305,14.305,0,0,1-1.59-2.484c.579,0,1.848,1.289,2.552,1.364a5.188,5.188,0,0,0-1.735-2.241l-.191-.241c-.171-.3-.493-.451-.725-.71-.174.11-.294.208-.467.115-.317-.17-.1-.387-.02-.562-.143-.083-.213-.155-.345-.236a.451.451,0,0,0-.167-.079l-.176-.044a1.2,1.2,0,0,1,1.84-.6c.167.148.2.224.344.364.285.287.155.106.433.2.412.133.749.28.983-.207.008.128-.037.231.03.338a6.124,6.124,0,0,0,2.715-.185c.6-.333.093-.5,1-.549a10.922,10.922,0,0,0,1.436-.1c-.379-.291-1.233-.089-1.687-.268a2.571,2.571,0,0,1,.784-.354l.67-.241a.466.466,0,0,0,.217-.159,17.265,17.265,0,0,0-2.682.358,5.338,5.338,0,0,1-2.595.353,2.394,2.394,0,0,1-1.924-2.669.829.829,0,0,1,.681-.911,1.88,1.88,0,0,0,.437,1.655,2.641,2.641,0,0,0,1.89.47c-.488-.3-.954-.156-1.468-.685a1.794,1.794,0,0,1-.317-1.659,21.7,21.7,0,0,1,3.149-.407c1.586-.276,1.613.458,2.557.93-.091-.188-.013-.076-.157-.235a6.668,6.668,0,0,0-1.669-1.277c-.919-.443-2.03.018-2.941-.014a3.322,3.322,0,0,0-1.987-2.991c-3.84-2.232-2.807,2.307-2.787,3.231a10.421,10.421,0,0,0,.247,2.256c.167.6.844,1.133.216,1.884a1.585,1.585,0,0,1-1.889.214Zm5.719-4.473a4.1,4.1,0,0,0-1.023-2.05,1.672,1.672,0,0,0-2.25-.15,1.2,1.2,0,0,0,.407,1.922,8.411,8.411,0,0,0,1.5.064A9.663,9.663,0,0,1,70.763,105.9ZM58.315,118.667a6.4,6.4,0,0,0,1.26-.416c-.064-.3-.535-.731-.878-.614A.788.788,0,0,0,58.315,118.667Zm3.3,2.888a2.451,2.451,0,0,1-.33-.683c-.086-.409-.033-.586.269-.775-.124,2.339,1.489.889,1.307-.027-.3-1.524-1.951.253-2.657-.229-.315-.215-.711-.732-1.385-.391-.72.364-.246.933-.021,1.305.4.665.031.8,1.028.938A4.529,4.529,0,0,0,61.62,121.554Zm0-3.934-.356-.383a.944.944,0,0,1-.06-.66.828.828,0,0,1,.729-.805c-.142.366-.422.668-.17,1.181a.735.735,0,0,0,.989.475c.756-.2,1.728-.893.941-1.774a6.7,6.7,0,0,0-2.242-.919c-.387-.1-1.788-.247-2.3-.854-.116-.136-.614-1.779-1.724-.666A1.792,1.792,0,0,0,57.4,115.5,4.162,4.162,0,0,0,61.623,117.62Zm.891-3.955c-.3-.448-.281-.631-.034-1.217.27-.641.244-.535.861-.789a4.176,4.176,0,0,0-.514.99,1,1,0,0,0,.373,1.113,2.944,2.944,0,0,0,2.466-.587c.788-.775,0-1.415-.789-1.792a6.328,6.328,0,0,1-1.962-1.235l.432-.1a3.411,3.411,0,0,0-.465-.389c-.639-.506-.8-.947-1.415-1.18-.939-.353-2.16.222-1.913,1.278.107.459.384.618.54,1.144.178.6.077.947.424,1.331A5.045,5.045,0,0,0,62.514,113.665Z" transform="translate(-46.043 -86.374)"/>
    <path id="Caminho_101" data-name="Caminho 101" class="cls-2" d="M213.609,140.641c2.516.269,5.089-.663,5.531.887a20.478,20.478,0,0,1,.014,4.6,2.214,2.214,0,0,1-.327,1.378,19.926,19.926,0,0,1-4.2,5.618,7.329,7.329,0,0,1-2.082,1.211c.373.526.846.989,1.27,1.5.2.243.436.53.647.761l6.784,7.454c.215.247.463.485.668.735,1.928,2.335,1.29,1.121,1.6.737.15-.182.222-.118.361-.34.066-.106.043-.035.074-.176a2.184,2.184,0,0,0-.232-.122l-.279-.213a4.51,4.51,0,0,0,.831.136c.156-.2.087-.071.115-.372.292-.015.19.065.4-.084.064-.647-.386-.868-.84-1.187a21.451,21.451,0,0,1-6.176-6.17,9.244,9.244,0,0,1-.881-1.2,4.933,4.933,0,0,0,.487-.859c-.312-.119-.266-.115-.433-.34.1-.206.073-.677.9-.485l.526-1.357c-.185.086-.073.021-.178.15-.371.455-.155.378-.48.2-.259.3-.638.493-.567-.206l.346-.124-.194-.081c-.141-.079-.073.012-.17-.129.144-.27.117-.122.229-.213.318-.261.126-.406.507-.619l.2-.1c.128.211.045.175.234.3l.3-.82c-.032.25-.084.405.03.591a21.83,21.83,0,0,0,1.062-3.827l.359-4.576c.07-1.635-.182-2.956-1.855-3.054a19.07,19.07,0,0,0-2.349.071c-.372.028-.77.066-1.144.107Z" transform="translate(-183.698 -119.937)"/>
    <path id="Caminho_102" data-name="Caminho 102" class="cls-3" d="M215.87,152.248a4.051,4.051,0,0,0,2.037.4,1.472,1.472,0,0,0,1.357-1.155c.443-1.423-1.026-2.161-1.97-2.87.1.533,2.615,2.864.381,3.6A4.589,4.589,0,0,1,215.87,152.248Z" transform="translate(-186.635 -127.328)"/>
    <circle id="Elipse_6" data-name="Elipse 6" class="cls-4" cx="4.631" cy="4.631" r="4.631" transform="translate(31.183 9.143)"/>
    <path id="Caminho_103" data-name="Caminho 103" class="cls-2" d="M242.631,53.03l.886,2.746,2.885-.006-2.337,1.691.9,2.742-2.33-1.7L240.3,60.2l.9-2.742L238.86,55.77l2.884.006Z" transform="translate(-206.909 -43.027)"/>
  </g>
</svg>
