<svg xmlns="http://www.w3.org/2000/svg" width="50" height="50" viewBox="0 0 50 50">
  <g id="Grupo_108" data-name="Grupo 108" transform="translate(-328 -1584)">
    <rect id="Retângulo_75" data-name="Retângulo 75" width="50" height="50" transform="translate(328 1584)" fill="none"/>
    <path id="file-lines-solid" d="M25,0V12.5H37.5ZM21.875,12.5V0H4.688A4.687,4.687,0,0,0,0,4.688V45.313A4.688,4.688,0,0,0,4.688,50H32.813A4.687,4.687,0,0,0,37.5,45.313V15.625H25.088A3.142,3.142,0,0,1,21.875,12.5Zm4.688,28.125H10.938a1.563,1.563,0,0,1,0-3.125H26.563a1.563,1.563,0,0,1,0,3.125Zm0-6.25H10.938a1.563,1.563,0,0,1,0-3.125H26.563a1.563,1.563,0,0,1,0,3.125Zm1.563-7.812a1.567,1.567,0,0,1-1.562,1.563H10.938a1.563,1.563,0,0,1,0-3.125H26.563A1.567,1.567,0,0,1,28.125,26.563Z" transform="translate(335 1584)" fill="#ee1515"/>
  </g>
</svg>
